<?xml version="1.0" standalone="no"?><!DOCTYPE svg PUBLIC "-//W3C//DTD SVG 1.1//EN" "http://www.w3.org/Graphics/SVG/1.1/DTD/svg11.dtd"><svg t="1603334834333" class="icon" viewBox="0 0 1024 1024" version="1.1" xmlns="http://www.w3.org/2000/svg" p-id="27559" width="38" height="38" xmlns:xlink="http://www.w3.org/1999/xlink"><defs><style type="text/css"></style></defs><path d="M512 512m-512 0a512 512 0 1 0 1024 0 512 512 0 1 0-1024 0Z" fill="#499DF2" p-id="27560"></path><path d="M216.064 403.889231h85.070769a18.904615 18.904615 0 0 0 18.550154-19.219693 18.904615 18.904615 0 0 0-18.510769-19.219692H216.064a18.904615 18.904615 0 0 0-18.550154 19.219692 18.904615 18.904615 0 0 0 18.510769 19.219693z m0 138.082461h85.070769a18.904615 18.904615 0 0 0 18.550154-19.219692 19.456 19.456 0 0 0-5.395692-13.587692 18.116923 18.116923 0 0 0-13.115077-5.632H216.064a18.904615 18.904615 0 0 0-18.550154 19.219692c0 10.633846 8.310154 19.219692 18.510769 19.219692z m103.620923 118.35077a19.456 19.456 0 0 0-5.435077-13.587693 18.116923 18.116923 0 0 0-13.075692-5.632H216.064a18.904615 18.904615 0 0 0-18.550154 19.219693 18.904615 18.904615 0 0 0 18.510769 19.219692h85.149539a18.904615 18.904615 0 0 0 18.510769-19.219692z m59.392 19.534769l-2.481231 6.065231h41.314462l1.220923-2.363077c19.377231-36.470154 64.866462-63.172923 110.670769-64.905847h9.452308c45.804308 1.732923 91.332923 28.435692 110.670769 64.945231l1.260308 2.323693h41.314461l-2.520615-6.065231c-7.483077-18.274462-20.637538-36.115692-37.966769-51.633231a201.649231 201.649231 0 0 0-46.710154-31.113846 132.647385 132.647385 0 0 0 41.117538-42.417231c12.169846-20.086154 18.589538-43.204923 18.589539-66.796308 0-72.073846-58.683077-130.756923-130.756923-130.756923-72.073846 0-130.756923 58.683077-130.756923 130.756923 0 23.630769 6.459077 46.788923 18.668307 66.914462 10.24 16.935385 24.536615 31.586462 41.314462 42.417231-16.935385 8.192-33.004308 18.904615-46.552616 31.113846-17.250462 15.478154-30.326154 33.28-37.80923 51.515077z m155.175385-284.672a92.829538 92.829538 0 0 1 92.711384 92.711384 92.829538 92.829538 0 0 1-92.711384 92.711385 92.829538 92.829538 0 0 1-92.711385-92.711385 92.829538 92.829538 0 0 1 92.711385-92.711384z" fill="#FFFFFF" p-id="27561"></path><path d="M755.121231 197.12H313.383385c-38.596923 0-69.947077 31.350154-69.947077 69.907692V319.409231h37.533538v-44.504616c0-26.505846 14.020923-40.526769 40.526769-40.526769h426.220308c26.505846 0 40.526769 14.020923 40.526769 40.526769v495.773539c0 26.505846-14.020923 40.526769-40.526769 40.526769H321.496615c-26.505846 0-40.526769-14.020923-40.526769-40.526769v-44.504616h-37.533538v51.593847c0 38.518154 31.389538 69.907692 69.947077 69.907692h441.737846c38.596923 0 69.947077-31.389538 69.947077-69.947077V267.027692c0-38.557538-31.389538-69.907692-69.947077-69.907692z" fill="#FFFFFF" p-id="27562"></path></svg>